<svg width="25" height="25" viewBox="0 0 25 25" fill="none" xmlns="http://www.w3.org/2000/svg">
<path d="M12.5 0C19.4039 0 25 5.59687 25 12.5C25 19.404 19.4039 25 12.5 25C5.59601 25 0 19.4039 0 12.5C0 5.59687 5.5961 0 12.5 0Z" fill="white"/>
<path d="M20.3144 8.42118C19.7684 8.65709 19.1808 8.81568 18.5645 8.88759C19.1942 8.52115 19.677 7.94223 19.9043 7.2509C19.3153 7.59073 18.6637 7.83685 17.9692 7.96884C17.4137 7.39464 16.6223 7.03601 15.7457 7.03601C14.0645 7.03601 12.7004 8.3587 12.7004 9.99145C12.7004 10.2235 12.7271 10.4493 12.7793 10.6657C10.2481 10.5423 8.00276 9.3649 6.50123 7.57666C6.23872 8.01338 6.08871 8.52038 6.08871 9.06257C6.08871 10.0876 6.62618 10.9938 7.44341 11.5228C6.94344 11.5071 6.47463 11.3751 6.06296 11.1525V11.19C6.06296 12.6228 7.11293 13.8173 8.50668 14.0892C8.2512 14.1564 7.98242 14.1931 7.70429 14.1931C7.5082 14.1931 7.3176 14.1752 7.13164 14.14C7.5191 15.315 8.64416 16.1696 9.97775 16.1932C8.93482 16.9869 7.62148 17.4588 6.19418 17.4588C5.94806 17.4588 5.70588 17.4447 5.4668 17.4174C6.81601 18.2564 8.41606 18.7463 10.1371 18.7463C15.7402 18.7463 18.8043 14.2401 18.8043 10.3338L18.7957 9.95094C19.3894 9.53525 19.9059 9.01494 20.3144 8.42118Z" fill="#00ADEE"/>
</svg>
